<svg xmlns="http://www.w3.org/2000/svg" viewBox="122.88 311.296 802.816 372.736" version="1.1" style="max-height: 500px" width="802.816" height="372.736">
<path fill="#538CDD" d="m0 0h11l8 4 5 6 3 9-1 9-6 9-7 4v25h65l16 4 14 8 11 11 6 10 4 12 1 6v138l-3 12-7 13-9 10-9 7-11 5-12 3h-152l-13-4-11-6-10-9-7-10-5-13-1-5v-144l4-13 5-10 12-13 14-8 9-3 6-1h68l-1-25-8-6-4-6-1-3v-10l4-8 7-6zm-61 99-11 4-10 9-5 10-1 4v119l3 10 6 8 6 5 9 4h136l11-4 9-8 5-9 2-10v-110l-3-12-5-8-8-7-9-4-4-1z" transform="translate(267,336)"/>
<path fill="#5B63CC" d="m0 0h11l8 4 5 6 3 9-1 9-6 9-7 4v25h64v1l-5 1 2 3 5 3-3 9-2 9-2 1-1 3-2 1 1 2-131 1-11 4-9 8-5 10-1 4-1 119-1 1 3 10 4 7 2 2-2 2-2 5-4 2-6 9h-13l-5-8-3-1-4-11-1-5v-144l4-13 5-10 12-13 14-8 9-3 6-1h68l-1-25-8-6-4-6-1-3v-10l4-8 7-6z" transform="translate(267,336)"/>
<path fill="#F8FAFC" d="m0 0h55l11 4 6 4 6 7 3 8v13l-4 9-5 6-4 2 10 7 4 6 2 6v16l-4 10-5 6-10 6-12 3h-53zm23 18v28h23l7-3 4-4 1-2v-9l-3-5-6-4-10-1zm0 46v29h27l8-4 3-6v-9l-4-6-4-3-4-1z" transform="translate(673,451)"/>
<path fill="#FBFCFD" d="m0 0h14l11 3 6 4 5 5 4 6 2 8v60h-22l-1-7-7 6-9 3h-10l-9-2-8-5-5-6-3-9 1-10 4-8 7-6 12-5 19-3h8l-2-12-5-2-9-1-6 3-4 8-17-1-5-1 1-8 4-8 7-6 11-5zm14 49-15 3-6 4-2 3 1 7h2v2l4 2h10l6-3 4-4 2-13v-1z" transform="translate(554,478)"/>
<path fill="#FAFBFD" d="m0 0h14l13 4 10 7 7 9 4 10 1 4v18l-4 13-6 9-7 7-10 5-8 2h-13l-13-4-8-6-8-9-4-9-2-9v-14l3-12 6-10 7-7 14-7zm2 20-6 4-4 5-3 8v13l3 9 5 6 7 3h7l7-3 6-7 2-7v-15l-4-9-7-6-2-1z" transform="translate(803,478)"/>
<path fill="#FCFCFD" d="m0 0h23v88l-5 12-8 8-10 5-8 2h-13l-13-4-6-4-7-7-4-8-2-9 1-5h22l4 10 5 4 3 1h7l6-3 3-4 1-3z" transform="translate(484,451)"/>
<path fill="#FBFCFD" d="m0 0h22v21h18v17h-18l1 40 2 5 2 2 6 1h6l1 1 1 16-5 2-13 1-12-3-6-5-4-8-1-4v-48h-12v-17h12z" transform="translate(869,460)"/>
<path fill="#FBFBFD" d="m0 0h22v21l16-1 1 1v17h-17l1 40 2 5 3 2h10l2 7 1 12-14 2-13-2-9-6-4-8-1-3v-49h-13v-17h13z" transform="translate(620,460)"/>
<path fill="#F4F7FB" d="m0 0h6l9 8 8 4 9 2h10l11-3 10-6 6-5h6l3 3 1 4-3 6-9 8-10 5-10 3h-20l-13-4-11-7-6-7-1-7z" transform="translate(235,542)"/>
<path fill="#F7F9FC" d="m0 0h10l8 5 4 7v11l-4 6-6 5-4 1h-7l-7-3-6-7-1-2v-11l4-7 6-4z" transform="translate(226,486)"/>
<path fill="#F8FAFC" d="m0 0h11l8 5 4 7v10l-3 6-6 5-6 2-9-1-7-4-4-8v-9l3-6 7-6z" transform="translate(308,486)"/>
<path fill="#5779D5" d="m0 0h2l3 10 2 5-3-1-4-9z" transform="translate(178,581)"/>
<path fill="#5779D5" d="m0 0 4 5 3 6-1 2-7-10z" transform="translate(154,609)"/>
</svg>